<svg width="992" height="674" viewBox="0 0 992 674" fill="none" xmlns="http://www.w3.org/2000/svg">
<path d="M774.395 0C778.009 1.21371 780.817 2.03275 784.157 3.95796C793.442 10.8746 797.706 22.1266 792.84 32.9095C770.234 83.0466 745.758 132.63 723.222 182.795C745.468 224.857 731.06 242.368 712.959 281.473L671.133 370.379C650.686 414.739 629.84 458.915 608.595 502.899C597.19 527.114 586.129 551.486 573.668 575.192C563.46 594.62 550.686 608.434 531.232 618.71C513.194 628.228 492.09 630.119 472.64 623.959C437.259 612.871 420.586 582.889 404.907 552.646C398.472 540.146 392.221 527.551 386.157 514.866C381.441 504.924 375.503 491.605 369.61 482.461C363.458 493.643 359.131 506.722 354.35 518.385C329.692 578.537 311.891 650.252 240.568 669.783C224.575 674.163 200.743 678.666 194.613 657.34C192.99 651.682 193.777 645.606 196.787 640.548C203.527 628.991 213.492 630.108 225.116 627.805C245.004 623.863 264.423 611.132 275.017 593.744C284.808 577.311 292.936 556.598 300.366 538.379L338.62 444.5C342.437 435.115 358.37 390.68 365.499 387.804C373.21 387.449 377.827 398.99 380.658 404.836C406.106 457.395 428.7 511.038 458.658 561.285C472.197 583.993 502.423 593.223 523.097 572.139C542.168 549.991 557.484 512.483 569.999 485.751L613.03 394.236C630.231 358.069 647.244 321.811 664.07 285.466C671.611 269.238 701.75 219.115 685.652 205.612C663.1 186.703 650.803 235.29 642.77 248.263C638.061 256.234 633.352 267.724 629.675 275.697C602.704 333.04 575.311 390.178 547.479 447.107C541.221 460.033 535.05 472.997 528.956 485.998C524.45 495.543 520.32 505.755 514.235 514.333C506.084 525.824 491.354 528.125 480.359 519.237C476.702 516.282 473.132 510.176 470.688 506.108C459.786 485.269 450.149 463.475 440.091 442.194C421.415 403.597 403.226 364.768 385.525 325.716C383.15 320.507 369.213 288.181 366.276 285.982C363.87 286.177 364.814 285.885 362.669 287.335C362.935 284.828 363.742 283.265 365.637 281.735C367.042 282.568 367.007 283.335 367.774 285.079C369.46 284.287 367.878 276.436 373.964 278.033C382.417 280.251 386.599 275.232 392.455 270.451C393.317 269.748 396.323 271.414 397.402 271.877L398.546 270.928C401.388 263.896 394.822 250.029 392.209 243.31C400.1 249.625 421.595 301.231 426.832 312.746L474.45 415.81C478.035 423.538 490.22 451.496 495.179 456.3C505.747 436.523 517.989 410.044 527.759 389.628L574.177 292.615L595.688 247.512C604.715 228.131 619.804 189.784 634.478 175.051C649.599 159.878 665.924 158.434 685.933 159.014L731.31 62.9255C737.013 50.7196 749.082 22.6343 755.293 12.3815C761.723 3.89867 764.531 3.06555 774.395 0Z" fill="#1FFB9E"/>
<path d="M774.395 0C778.009 1.21371 780.817 2.03275 784.157 3.95796L781.912 6.02395C782.523 8.41508 784.376 9.13221 785.339 10.9094C788.147 16.0962 791.033 24.9465 789.422 30.7754C788.585 33.8108 780.16 39.561 777.102 41.1237C771.384 44.0715 762.99 47.4668 756.553 45.7437C755.09 45.3527 753.166 43.729 752.931 42.6191C751.249 34.555 757.132 22.8724 756.725 13.1801C756.177 12.8739 755.7 12.6078 755.293 12.3815C761.723 3.89867 764.531 3.06555 774.395 0Z" fill="#2EFD73"/>
<path d="M797.526 153.28C807.178 131.524 817.073 109.934 827.282 88.3995C833.07 76.1857 838.514 61.8149 845.891 50.5812C851.085 43.8064 863.303 41.5695 870.476 45.0656C879.558 49.4901 883.751 63.4331 880.52 72.4354C869.874 102.127 853.83 131.719 841.19 160.597C823.996 198.881 803.956 238.174 788.921 278.304C759.275 357.458 764.547 451.435 780.442 533.18C782.929 545.948 787.208 555.278 798.457 561.943C820.813 563.708 828.619 549.87 835.331 530.675C847.799 494.992 857.499 457.862 867.159 421.316C876.014 388.846 885.417 356.53 895.374 324.382C904.886 294.834 915.72 265.73 927.845 237.158C934.329 221.831 941.307 206.739 947.643 191.393C952.219 180.614 948.863 169.377 937.247 165.445C934.462 164.502 929.26 164.669 926.937 166.518C910.151 179.867 903.729 206.919 895.038 226.123C889.602 240.304 883.406 254.338 878.158 268.575C848.871 347.928 829.574 430.056 806.013 511.058C796.415 490.46 792.95 422.254 795.234 398.772C797.033 380.262 809.306 341.17 815.243 322.453C828.087 280.561 842.981 239.322 859.853 198.885C865.892 184.414 871.767 169.974 879.143 156.11C900.334 116.322 951.429 110.111 979.691 146.366C989.367 158.898 993.599 174.793 991.432 190.477C988.514 213.152 973.362 237.833 964.711 258.938C935.018 331.327 915.149 406.443 894.842 481.825C885.307 517.226 875.475 554.166 862.028 588.318C852.25 613.135 836.637 639.202 815.47 655.778C775.31 686.714 720.273 676.052 691.643 635.006C669.679 603.93 660.996 566.37 655.528 529.403C652.071 511.861 649.129 490.699 660.159 474.899C665.587 467.122 683.25 422.567 687.811 419.234L688.757 419.69C690.024 423.412 689.524 429.575 689.797 433.914L692.027 474.356C694.459 512.725 700.264 544.713 710.957 581.425C727.024 636.567 784.932 649.735 810.777 593.888C775.209 605.537 755.583 591.518 743.638 556.982C733.61 527.984 730.661 493.045 727.978 462.447C722.158 396.01 727.031 326.364 748.934 263.032C761.277 228.35 781.748 187.504 797.526 153.28Z" fill="#11F7CE"/>
<path d="M797.526 153.28C807.178 131.524 817.074 109.934 827.282 88.3995C833.07 76.1857 838.514 61.8149 845.891 50.5812C851.085 43.8064 863.303 41.5695 870.476 45.0656C879.558 49.4901 883.751 63.4331 880.52 72.4354C869.874 102.127 853.83 131.719 841.19 160.597L840.314 157.89C836.778 156.675 833.571 161.089 832.46 160.774C817.926 156.653 818.396 169.731 806.255 178.893L805.974 179.1C800.631 178.978 799.857 181.904 796.767 181.227C793.896 175.957 797.643 170.054 798.105 164.458C798.378 161.11 798.551 158.171 799.051 154.808L797.526 153.28Z" fill="#2EFD73"/>
<path d="M362.669 287.335C362.593 288.089 362.224 290.121 361.944 290.794C329.193 369.528 296.032 447.163 260.404 524.765C235.846 578.78 186.306 612.779 126.931 617.732C103.728 619.668 90.335 600.052 105.801 580.293C110.755 573.965 132.055 573.526 141.173 571.677C167.721 566.17 191.328 551.121 207.524 529.379C221.701 510.165 233.923 480.171 243.802 457.577L299.425 328.561L320.819 278.049C325.038 268.328 328.796 259.282 333.916 249.874C342.925 233.319 359.807 225.726 378.1 231.807C383.141 233.483 389.825 238.384 392.209 243.31C394.822 250.029 401.388 263.896 398.546 270.928L397.402 271.877C396.323 271.414 393.317 269.748 392.455 270.451C386.599 275.232 382.417 280.251 373.964 278.033C367.878 276.436 369.46 284.287 367.774 285.079C367.007 283.335 367.042 282.567 365.637 281.735C363.742 283.265 362.935 284.828 362.669 287.335Z" fill="#2EFD73"/>
<path d="M219.95 323.973C221.751 323.897 223.585 323.815 225.386 323.932C230.332 324.256 236.055 327.811 239.123 331.594C243.345 336.8 244.031 343.764 243.286 350.217C241.835 362.793 202.782 445.489 194.416 461.887C190.461 469.54 186.099 476.976 181.35 484.164C145.223 538.385 87.6254 550.399 26.5186 542.805C12.979 540.868 -0.625437 535.36 0.0222462 518.105C0.317928 510.217 5.5956 504.863 11.4779 500.091C20.9703 498.454 26.0727 499.559 35.0809 499.561C56.2589 499.567 79.1577 502.699 99.2148 495.164C113.405 489.992 129.057 482.089 138.813 469.649C163.422 438.273 175.236 395.017 193.743 359.676C202.516 342.922 198.524 331.479 219.95 323.973Z" fill="#2EFD73"/>
<path d="M583.649 109.104C585.003 108.966 591.37 109.657 593.083 109.813C618.161 124.218 599.239 151.132 590.384 170.061L561.575 230.171C558.79 235.878 556.17 241.652 553.549 247.432C534.643 289.033 514.141 329.944 495.399 371.606C490.69 369.446 472.787 331.013 471.862 324.131C471.197 319.18 486.207 290.236 489.18 283.963L520.125 218.123C531.037 193.989 542.238 169.987 553.729 146.121C560.918 130.902 565.111 110.9 583.649 109.104Z" fill="#2EFD73"/>
</svg>
